# xmcd
#
# Track frame offsets:
# 150
# 18378
# 39483
# 64138
# 87983
# 111343
# 131498
# 150846
# 183731
# 206773
#
# Disc length: 2986 seconds
#
#
# Revision: 0
# Processed by: cddbd v1.5.1PL2 Copyright (c) Steve Scherf et al.
# Submitted via: FreeRIP 2.944 
#
DISCID=840ba80a
DTITLE=The Robert Cray Band - I Was Warned
DYEAR=1992
DGENRE=Blues
TTITLE0=Just A Loser
TTITLE1=I'm A Good Man
TTITLE2=I Was Warned
TTITLE3=The Price I Pay
TTITLE4=Won The Battle
TTITLE5=On The Road Down
TTITLE6=A Whole Lotta Pride
TTITLE7=A Picture Of A Broken Heart
TTITLE8=He Don't Live Here Anymore
TTITLE9=Our Last Time
EXTD=
EXTT0=
EXTT1=
EXTT2=
EXTT3=
EXTT4=
EXTT5=
EXTT6=
EXTT7=
EXTT8=
EXTT9=
PLAYORDER=
